{"title":"The Huntsman Winter's War 2016 Extended Cut BRRip x264 AAC-SSN","uid":15460831,"size":1451464451,"categoryP":"video","categoryS":"movies","magnet":"?xt=urn:btih:cf50bbc319d636c170eb72891ba40f182b353f74&amp;dn=The+Huntsman+Winter%27s+War+2016+Extended+Cut+BRRip+x264+AAC-SSN&amp;tr=udp%3A%2F%2Ftracker.leechers-paradise.org%3A6969&amp;tr=udp%3A%2F%2Fzer0day.ch%3A1337&amp;tr=udp%3A%2F%2Fopen.demonii.com%3A1337&amp;tr=udp%3A%2F%2Ftracker.coppersurfer.tk%3A6969&amp;tr=udp%3A%2F%2Fexodus.desync.com%3A6969","seeders":2,"leechers":0,"uploader":"somespirit","files":2,"time":1470043642,"description":"IMDB:  http://www.imdb.com/title/tt2381991/\r\n\r\n Source: The Huntsman Winter's War 2016 Extended Cut 1080p Bluray DTS 5.1 ING x264-Eml HDTeam\r\n\r\n\r\n\r\n General\r\n Complete name                            :The Huntsman Winter's War 2016 Extended Cut BRRip x264 AAC-SSN .mkv\r\n Format                                   : Matroska\r\n Format version                           : Version 4 / Version 2\r\n File size                                : 1.35 GiB\r\n Duration                                 : 2 h 0 min\r\n Overall bit rate                         : 1 610 kb/s\r\n Encoded date                             : UTC 2016-07-30 08:45:00\r\n Writing application                      : mkvmerge v8.6.1 ('Flying') 64bit\r\n Writing library                          : libebml v1.3.3 + libmatroska v1.4.4\r\n\r\n Video\r\n ID                                       : 1\r\n Format                                   : AVC\r\n Format/Info                              : Advanced Video Codec\r\n Format profile                           :   \r\n Format settings, CABAC                   : Yes\r\n Format settings, ReFrames                : 5 frames\r\n Codec ID                                 : V_MPEG4/ISO/AVC\r\n Duration                                 : 2 h 0 min\r\n Bit rate                                 : 1 282 kb/s\r\n Width                                    : 900 pixels\r\n Height                                   : 376 pixels\r\n Display aspect ratio                     : 2.40:1\r\n Frame rate mode                          : Constant\r\n Frame rate                               : 23.976 (24000/1001) FPS\r\n Color space                              : YUV\r\n Chroma subsampling                       : 4:2:0\r\n Bit depth                                : 8 bits\r\n Scan type                                : Progressive\r\n Bits/(Pixel*Frame)                       : 0.190\r\n Stream size                              : 1.07 GiB (79%)\r\n Writing library                          : x264 core 148 r2692 64f4e24\r\n Language                                 : English\r\n Default                                  : Yes\r\n Forced                                   : No\r\n\r\n Audio\r\n ID                                       : 2\r\n Format                                   : AAC\r\n Format/Info                              : Advanced Audio Codec\r\n Format profile                           : LC\r\n Codec ID                                 : A_AAC\r\n Duration                                 : 2 h 0 min\r\n Bit rate                                 : 329 kb/s\r\n Channel(s)                               : 6 channels\r\n Channel positions                        : Front: L C R, Side: L R, LFE\r\n Sampling rate                            : 32.0 kHz\r\n Frame rate                               : 31.250 FPS (1024 spf)\r\n Compression mode                         : Lossy\r\n Stream size                              : 282 MiB (20%)\r\n Language                                 : English\r\n Default                                  : Yes\r\n Forced                                   : No","torrent":{"xt":"urn:btih:cf50bbc319d636c170eb72891ba40f182b353f74","amp;dn":"The+Huntsman+Winter%27s+War+2016+Extended+Cut+BRRip+x264+AAC-SSN","amp;tr":["udp%3A%2F%2Ftracker.leechers-paradise.org%3A6969","udp%3A%2F%2Fzer0day.ch%3A1337","udp%3A%2F%2Fopen.demonii.com%3A1337","udp%3A%2F%2Ftracker.coppersurfer.tk%3A6969","udp%3A%2F%2Fexodus.desync.com%3A6969"],"infoHash":"cf50bbc319d636c170eb72891ba40f182b353f74","infoHashBuffer":{"type":"Buffer","data":[207,80,187,195,25,214,54,193,112,235,114,137,27,164,15,24,43,53,63,116]},"announce":[],"urlList":[]}}